<svg xmlns="http://www.w3.org/2000/svg" width="240" height="240" viewBox="0 0 240 240">
  <rect width="240" height="240" fill="#ffffff"/>
  <rect x="16" y="16" width="64" height="64" fill="#111827"/>
  <rect x="28" y="28" width="40" height="40" fill="#ffffff"/>
  <rect x="36" y="36" width="24" height="24" fill="#111827"/>

  <rect x="160" y="16" width="64" height="64" fill="#111827"/>
  <rect x="172" y="28" width="40" height="40" fill="#ffffff"/>
  <rect x="180" y="36" width="24" height="24" fill="#111827"/>

  <rect x="16" y="160" width="64" height="64" fill="#111827"/>
  <rect x="28" y="172" width="40" height="40" fill="#ffffff"/>
  <rect x="36" y="180" width="24" height="24" fill="#111827"/>

  <rect x="112" y="112" width="16" height="16" fill="#111827"/>
  <rect x="132" y="112" width="16" height="16" fill="#111827"/>
  <rect x="112" y="132" width="16" height="16" fill="#111827"/>
  <rect x="152" y="132" width="16" height="16" fill="#111827"/>
  <rect x="132" y="152" width="16" height="16" fill="#111827"/>
  <rect x="112" y="172" width="16" height="16" fill="#111827"/>
</svg>
